<?xml version="1.0" encoding="UTF-8" standalone="no"?>
<!DOCTYPE svg PUBLIC "-//W3C//DTD SVG 1.1//EN" "http://www.w3.org/Graphics/SVG/1.1/DTD/svg11.dtd">
<svg width="100%" height="100%" viewBox="0 0 588 590" version="1.1" xmlns="http://www.w3.org/2000/svg" xmlns:xlink="http://www.w3.org/1999/xlink" xml:space="preserve" xmlns:serif="http://www.serif.com/" style="fill-rule:evenodd;clip-rule:evenodd;stroke-linejoin:round;stroke-miterlimit:2;">
    <g id="Artboard1" transform="matrix(1,0,0,1,-9.92107,-6.2188)">
        <rect x="9.921" y="6.219" width="587.177" height="589.408" style="fill:none;"/>
        <clipPath id="_clip1">
            <rect x="9.921" y="6.219" width="587.177" height="589.408"/>
        </clipPath>
        <g clip-path="url(#_clip1)">
            <g transform="matrix(0.58611,-0.810231,0.810231,0.58611,672.06,249.847)">
                <path d="M49.4,-70.2C72.2,-39.7 104.5,-31.9 124.2,-8.8C143.8,14.2 150.7,52.6 134.9,75.9C119.1,99.2 80.6,107.4 48.5,108.2C16.4,109 -9.2,102.4 -58.7,107.7C-108.1,112.9 -181.4,129.9 -212.5,107.5C-243.6,85 -232.6,23 -209.4,-24.5C-186.3,-72 -151,-104.9 -114.1,-132.9C-77.1,-160.9 -38.6,-184 -12.6,-168.9C13.3,-153.8 26.6,-100.7 49.4,-70.2Z" style="fill:rgb(149,173,190);fill-rule:nonzero;"/>
            </g>
        </g>
    </g>
</svg>
